<?xml version="1.0" encoding="UTF-8"?><svg id="Layer_1" xmlns="http://www.w3.org/2000/svg" xmlns:xlink="http://www.w3.org/1999/xlink" viewBox="0 0 864 1032"><defs><style>.cls-1{fill:url(#linear-gradient-2);}.cls-2{fill:url(#linear-gradient-6);}.cls-3{fill:url(#linear-gradient-11);}.cls-4{fill:url(#linear-gradient-10);}.cls-5{fill:url(#radial-gradient);}.cls-6{fill:url(#linear-gradient-5);}.cls-7{fill:url(#linear-gradient-7);}.cls-8{fill:url(#linear-gradient-9);}.cls-9{fill:url(#linear-gradient-3);}.cls-10{fill:url(#linear-gradient);}.cls-11{fill:url(#linear-gradient-4);}.cls-12{fill:url(#linear-gradient-8);}.cls-13{fill:url(#linear-gradient-12);}.cls-14{fill:url(#linear-gradient-13);}</style><linearGradient id="linear-gradient" x1="404.2" y1="413" x2="835.12" y2="222.62" gradientUnits="userSpaceOnUse"><stop offset="0" stop-color="#1240a1" stop-opacity=".5"/><stop offset="1" stop-color="#139fef" stop-opacity=".8"/></linearGradient><linearGradient id="linear-gradient-2" x1="399.71" y1="402.84" x2="830.63" y2="212.46" xlink:href="#linear-gradient"/><linearGradient id="linear-gradient-3" x1="395.31" y1="392.87" x2="826.23" y2="202.49" xlink:href="#linear-gradient"/><linearGradient id="linear-gradient-4" x1="390.9" y1="382.89" x2="821.82" y2="192.51" xlink:href="#linear-gradient"/><linearGradient id="linear-gradient-5" x1="386.68" y1="373.34" x2="817.6" y2="182.96" xlink:href="#linear-gradient"/><linearGradient id="linear-gradient-6" x1="382.36" y1="363.55" x2="813.28" y2="173.17" xlink:href="#linear-gradient"/><linearGradient id="linear-gradient-7" x1="378.03" y1="353.77" x2="808.95" y2="163.38" xlink:href="#linear-gradient"/><linearGradient id="linear-gradient-8" x1="373.79" y1="344.16" x2="804.71" y2="153.78" xlink:href="#linear-gradient"/><linearGradient id="linear-gradient-9" x1="369.53" y1="334.51" x2="800.45" y2="144.13" xlink:href="#linear-gradient"/><linearGradient id="linear-gradient-10" x1="365.61" y1="325.65" x2="796.53" y2="135.27" xlink:href="#linear-gradient"/><linearGradient id="linear-gradient-11" x1="362.43" y1="318.45" x2="793.35" y2="128.07" xlink:href="#linear-gradient"/><linearGradient id="linear-gradient-12" x1="362.96" y1="319.64" x2="793.88" y2="129.26" xlink:href="#linear-gradient"/><linearGradient id="linear-gradient-13" x1="366" y1="326.52" x2="796.92" y2="136.14" xlink:href="#linear-gradient"/><radialGradient id="radial-gradient" cx="822.43" cy="-70.75" fx="822.43" fy="-70.75" r="282.53" gradientTransform="translate(2528.64 354.64) rotate(-180) scale(2.02 -1.74)" gradientUnits="userSpaceOnUse"><stop offset="0" stop-color="aqua" stop-opacity=".3"/><stop offset=".93" stop-color="aqua" stop-opacity="0"/></radialGradient></defs><g><path class="cls-10" d="M87.89,0c-2.39,17.8-5.17,35.56-7.08,53.42-3.95,36.9-3.53,73.81,.9,110.68,4.85,40.43,14.85,79.45,31.17,116.79,25.41,58.14,63.61,106.18,113.69,145.1,69.61,54.1,143.46,101.49,221.53,142.43,65.68,34.44,133.58,63.94,201.85,92.72,54.45,22.95,108.76,46.26,162.93,69.87,17.38,7.57,34.11,16.63,51.13,25.01v11c-19.47-9.45-38.64-19.58-58.46-28.21-50.97-22.2-102.11-44.05-153.41-65.48-63.14-26.38-126.02-53.29-187.12-84.19-88.85-44.93-172.67-97.72-250.82-159.51-67.03-52.99-109.77-121.48-131.17-203.69-13.77-52.88-17.78-106.71-13.21-161.08C71.63,43.17,75.14,21.62,77.89,0c3.33,0,6.67,0,10,0Z"/><path class="cls-1" d="M153.9,0c-2.63,16.26-5.81,32.45-7.78,48.78-3.45,28.66-4.23,57.45-2.27,86.3,5.79,85.43,33.85,161.75,92.15,225.75,21.68,23.8,47.33,42.92,73.03,61.97,71.95,53.35,149.09,97.95,229.81,136.57,66.27,31.7,134.58,58.65,201.97,87.75,40.49,17.48,80.29,36.54,120.41,54.88,.9,.41,1.86,.68,2.79,1.02v11c-13.16-6.41-26.13-13.25-39.51-19.15-43.86-19.35-87.68-38.81-131.86-57.39-70.29-29.55-140.62-58.93-208.36-94.11-78.55-40.79-153.02-87.94-221.75-143.78-62.47-50.75-100.49-116.75-118.47-194.72-11.61-50.33-13.82-101.22-8.34-152.47C137.58,34.88,140.47,17.46,142.89,0c3.67,0,7.33,0,11,0Z"/><path class="cls-9" d="M219.91,0c-14.61,68-17.09,136.01,.72,203.84,18.37,70.01,55.97,127.32,113.45,171.72,59.86,46.25,123.31,86.71,190.42,121.59,59.44,30.9,121.13,56.78,182.66,83.09,48.96,20.94,97.39,43.11,146.05,64.75,3.63,1.61,7.2,3.35,10.8,5.02v11c-27.41-12.92-54.53-26.5-82.29-38.62-43.33-18.92-87.1-36.82-130.66-55.21-89.92-37.97-177.12-81.11-257.98-136.21-30.84-21.01-61.47-42.37-89.18-67.48-46.47-42.12-76.64-94.21-92.86-154.57-12.5-46.52-15.88-93.88-11.34-141.7,2.04-21.51,5.94-42.83,8.99-64.25,.14-.98,.15-1.99,.22-2.98,3.67,0,7.33,0,11,0Z"/><path class="cls-11" d="M285.92,0c-8.91,37.94-13.84,76.34-12.7,115.36,1.67,56.61,15.04,109.96,44.96,158.61,20.47,33.28,47.81,59.88,78.8,83.34,68.57,51.9,142.23,95.23,220.51,130.5,58.42,26.32,117.67,50.82,176.38,76.52,21.34,9.34,42.2,19.8,63.29,29.73,2.24,1.06,4.55,1.97,6.83,2.95v11c-11.68-5.67-23.18-11.72-35.06-16.94-39.62-17.42-79.21-34.91-119.11-51.67-57.28-24.06-114.31-48.6-169.18-77.86-59.96-31.98-117-68.49-169.72-111.43-53.47-43.55-85.86-100.04-100.02-167.24-12.55-59.55-9.74-118.86,3.19-177.97,.35-1.62,.54-3.27,.81-4.9,3.67,0,7.33,0,11,0Z"/><path class="cls-6" d="M351.93,0c-3.81,20.09-8.74,40.03-11.22,60.28-7.64,62.46-1.08,122.96,28.13,179.76,17.51,34.04,42,62.08,72.32,85.43,56.56,43.54,116.78,81.2,181.44,111.26,55.06,25.61,111.14,49.03,166.64,73.7,23.27,10.34,46.21,21.41,69.31,32.14,1.81,.84,3.63,1.63,5.45,2.45v11c-17.32-8.53-34.33-17.75-52-25.47-48.82-21.31-98.06-41.67-146.88-62.97-83.82-36.57-162.99-81.14-234.97-137.97-49.25-38.89-80.31-89.08-94.23-150.05-13.37-58.56-9.86-116.75,4.18-174.67,.39-1.6,.55-3.26,.82-4.89,3.67,0,7.33,0,11,0Z"/><path class="cls-2" d="M418.94,0c-6.74,23.57-12.1,47.42-14.38,71.87-6.33,67.65,5.37,130.7,47.42,186.06,16.75,22.06,38.23,38.83,60.27,55.07,60.4,44.51,126.19,79.39,194.79,109.27,35.26,15.36,70.67,30.37,105.87,45.88,15.38,6.78,30.39,14.4,45.59,21.61,1.79,.85,3.67,1.51,5.51,2.26v11c-16.44-8.05-32.63-16.66-49.36-24.05-52.53-23.21-105.61-45.19-157.81-69.09-61.53-28.16-119.1-63.2-172.41-105.01-45.32-35.54-73.63-81.72-85.51-137.98-11.4-53.99-6.85-107.28,7.37-160.11,.6-2.24,1.11-4.51,1.67-6.77,3.67,0,7.33,0,11,0Z"/><path class="cls-7" d="M485.94,0c-14.39,41.53-21.87,84.11-17.72,128.11,5.96,63.13,34.08,113.58,85.78,151.32,52.18,38.09,107.94,69.58,166.83,95.78,41.51,18.47,83.11,36.76,124.65,55.18,6.22,2.76,12.34,5.74,18.51,8.62v11c-39.32-17.7-78.45-35.81-117.99-52.99-53.37-23.19-106.19-47.47-154.72-79.82-22.96-15.31-45.73-31.28-66.55-49.31-34.56-29.92-54.26-69.05-62.75-113.77-9.55-50.27-3.85-99.46,11.33-147.88,.64-2.05,1.1-4.16,1.64-6.24,3.67,0,7.33,0,11,0Z"/><path class="cls-12" d="M553.95,0c-2.19,6.61-4.4,13.21-6.58,19.82-9.91,29.96-15.6,60.62-14.4,92.28,2.17,57.26,24.49,104.19,71.03,138.92,45.08,33.64,93.99,60.53,145.18,83.5,37.51,16.83,74.99,33.75,112.49,50.62,.76,.34,1.55,.58,2.33,.87v11c-21.4-10.03-42.57-20.59-64.24-29.97-46.29-20.04-92.81-39.54-136.57-64.9-26.69-15.47-52.56-32.21-76.39-51.81-34.86-28.67-54.66-66.06-61.81-110.31-7.51-46.46,.27-91.15,16.28-134.82,.63-1.71,1.13-3.46,1.69-5.19,3.67,0,7.33,0,11,0Z"/><path class="cls-8" d="M623.97,0c-17.49,36.23-28.51,74.02-25.95,114.67,2.84,45.16,21.32,82.17,58.19,109.57,40.91,30.4,85.8,53.55,132.19,74.13,23.29,10.33,46.38,21.11,69.58,31.64,1.92,.87,4.01,1.34,6.02,2v11c-43.54-20.01-87.32-39.51-130.53-60.21-33.39-16-65.01-35.29-93.49-59.08-29.71-24.81-46-57.37-50.89-95.5-5.8-45.21,4.61-87.59,23.88-128.23h11Z"/><path class="cls-4" d="M696.98,0c-21.25,31.23-34.53,65.33-34.99,103.43-.51,41.66,16.85,74.28,51.16,98.32,33.74,23.64,70.42,41.58,107.86,58.26,14.44,6.43,28.67,13.32,43,20v10c-43.31-21.58-89.3-37.72-130.52-63.48-14.77-9.23-29.34-19.11-42.58-30.36-20.94-17.79-32.46-41.41-36.77-68.45-5.79-36.33,2.03-70.46,17.55-103.16C675.66,16.16,680.52,8.17,684.97,0c4,0,8,0,12,0Z"/><path class="cls-3" d="M779.99,0c-7.46,7.8-15.42,15.18-22.29,23.47-16.71,20.17-27.58,43.24-30.4,69.41-3.6,33.42,7.41,60.88,35.47,80.57,19.14,13.43,39.69,24.37,60.81,34.29,11.6,5.45,23.24,10.81,34.88,16.16,1.79,.82,3.7,1.4,5.55,2.09v11c-21.54-10.17-43.38-19.75-64.51-30.72-15.62-8.11-31.02-17.04-45.23-27.38-29.15-21.2-40.11-51.04-36.26-86.28,3.85-35.24,20.8-64.19,45.15-89.23,1.02-1.05,1.89-2.26,2.83-3.39,4.67,0,9.33,0,14,0Z"/><path class="cls-13" d="M864,25c-22.62,7.45-42.27,19.35-57.17,38.32-9.07,11.55-14.85,24.57-15.77,39.23-1.11,17.63,5.95,32.35,20.35,42.08,13.02,8.8,27.4,15.6,41.25,23.15,3.64,1.99,7.55,3.49,11.33,5.22v10c-17.6-9.07-35.62-17.41-52.69-27.38-21.08-12.31-31.14-31.29-29.17-56.02,1.13-14.13,6.33-26.83,14.45-38.31,16.75-23.7,39.89-38.21,67.41-46.29v10Z"/><path class="cls-14" d="M864,130c-12.89-3.82-19.32-11.03-18.83-21.69,.32-6.96,3.67-12.72,8.66-17.38,3.13-2.92,6.77-5.31,10.17-7.94v11c-1.94,1.78-4.15,3.34-5.78,5.37-6.81,8.5-4.47,16.64,5.78,20.63v10Z"/></g><path class="cls-5" d="M864.15-263.11c-364.24,0-660.36,220.42-660.36,492.33s296.12,492.33,660.36,492.33"/></svg>