<?xml version="1.0" encoding="UTF-8"?><svg id="Layer_1" xmlns="http://www.w3.org/2000/svg" xmlns:xlink="http://www.w3.org/1999/xlink" viewBox="0 0 605 940"><defs><style>.cls-1{fill:url(#linear-gradient-2);}.cls-2{fill:url(#linear-gradient-6);}.cls-3{fill:url(#linear-gradient-11);}.cls-4{fill:url(#linear-gradient-10);}.cls-5{fill:url(#radial-gradient);}.cls-6{fill:url(#linear-gradient-5);}.cls-7{fill:url(#linear-gradient-7);}.cls-8{fill:url(#linear-gradient-9);}.cls-9{fill:url(#linear-gradient-3);}.cls-10{fill:url(#linear-gradient);}.cls-11{fill:url(#linear-gradient-4);}.cls-12{fill:url(#linear-gradient-8);}</style><linearGradient id="linear-gradient" x1="0" y1="470.57" x2="604.49" y2="470.57" gradientUnits="userSpaceOnUse"><stop offset="0" stop-color="#139fef" stop-opacity=".5"/><stop offset=".22" stop-color="#1246a6" stop-opacity=".76"/><stop offset=".6" stop-color="#139fef" stop-opacity=".5"/><stop offset="1" stop-color="#1240a1" stop-opacity=".8"/></linearGradient><linearGradient id="linear-gradient-2" x1="0" y1="479.91" x2="547.16" y2="479.91" xlink:href="#linear-gradient"/><linearGradient id="linear-gradient-3" x1="0" y1="490.46" x2="489.81" y2="490.46" xlink:href="#linear-gradient"/><linearGradient id="linear-gradient-4" x1="0" y1="500.97" x2="432.69" y2="500.97" xlink:href="#linear-gradient"/><linearGradient id="linear-gradient-5" x1="0" y1="512.95" x2="375.17" y2="512.95" xlink:href="#linear-gradient"/><linearGradient id="linear-gradient-6" x1="0" y1="526.06" x2="318.05" y2="526.06" xlink:href="#linear-gradient"/><linearGradient id="linear-gradient-7" x1="0" y1="542.22" x2="260.59" y2="542.22" xlink:href="#linear-gradient"/><linearGradient id="linear-gradient-8" x1="0" y1="566.92" x2="203.14" y2="566.92" xlink:href="#linear-gradient"/><linearGradient id="linear-gradient-9" x1="0" y1="611.14" x2="145.68" y2="611.14" xlink:href="#linear-gradient"/><linearGradient id="linear-gradient-10" x1="0" y1="619.02" x2="88.86" y2="619.02" xlink:href="#linear-gradient"/><linearGradient id="linear-gradient-11" x1="0" y1="610.76" x2="31.16" y2="610.76" xlink:href="#linear-gradient"/><radialGradient id="radial-gradient" cx="-59.17" cy="514.23" fx="-59.17" fy="514.23" r="282.53" gradientTransform="translate(71.02 -11.69) scale(1.21 1.19)" gradientUnits="userSpaceOnUse"><stop offset="0" stop-color="aqua" stop-opacity=".5"/><stop offset=".93" stop-color="aqua" stop-opacity="0"/></radialGradient></defs><g><path class="cls-10" d="M0,912.77c13.38,3.75,26.67,7.88,40.17,11.13,10.68,2.57,21.6,4.22,32.47,5.98,5.46,.89,11.03,1.43,16.56,1.57,25.4,.63,50.8,1.48,76.19,1.38,14.06-.05,28.12-1.71,42.16-2.86,9.81-.8,19.65-1.61,29.38-3.07,12.33-1.85,24.58-4.33,36.84-6.61,22.74-4.22,44.95-10.39,66.77-18.01,18.85-6.58,37.18-14.42,54.85-23.73,17.46-9.21,34.28-19.51,49.98-31.45,9.72-7.39,18.82-15.63,27.8-23.92,8.21-7.58,16.18-15.47,23.7-23.73,8.22-9.03,16.15-18.37,23.58-28.06,10.31-13.45,20.74-26.89,29.8-41.17,10.11-15.92,19.31-32.49,27.88-49.31,8.46-16.6,14.07-34.42,17.12-52.8,1.74-10.44,2.78-21.22,2.28-31.75-1.14-23.75-10.02-44.81-24.32-63.85-11.66-15.52-26.03-27.97-42.04-38.53-17.37-11.46-36.46-19.46-56.55-24.73-13.57-3.56-27.37-6.3-41.13-9.08-12.11-2.45-24.34-4.31-36.45-6.7-15.82-3.13-31.69-6.1-47.35-9.93-20.26-4.96-39.47-12.73-57.73-22.99-18.64-10.48-34.7-24.02-49.02-39.67-12.71-13.89-23.29-29.39-32.57-45.8-6.06-10.71-11.48-21.68-14.06-33.73-1.69-7.9-2.9-15.97-3.46-24.02-.91-13.12-.83-26.31-1.69-39.44-.93-14.27-1.69-28.62-3.91-42.71-2.34-14.81-5.69-29.53-9.73-43.98-6.27-22.35-14.05-44.24-24.57-65.01-9.29-18.34-21.64-34.51-37.2-47.93-16.96-14.64-36.69-24.08-58.73-28.55-11.81-2.4-23.74-3.43-35.75-2.9-7.11,.31-14.19,1.42-21.29,2.17V3c2.76-.49,5.51-1.37,8.28-1.42,10.77-.17,21.55-.18,32.33-.06,14.54,.17,28.39,4.03,41.8,9.12,12.41,4.71,23.63,11.71,34.15,19.9,13.43,10.44,24.1,23.24,33.41,37.28,8.76,13.22,15.24,27.59,20.98,42.32,7.41,19.02,14.02,38.31,18.26,58.31,2.26,10.65,4.4,21.36,5.67,32.16,1.55,13.11,2.23,26.32,3.09,39.5,.47,7.31,.36,14.66,.82,21.97,1.05,16.79,1.49,33.8,8.29,49.53,4.26,9.85,9.1,19.57,14.83,28.62,7.06,11.16,14.85,21.94,23.18,32.19,9.3,11.44,20.13,21.57,32.35,29.88,9.9,6.74,20.06,13.28,30.74,18.67,18.49,9.33,38.23,15.5,58.53,19.62,16.06,3.26,32.2,6.12,48.32,9.04,26.69,4.84,53.44,9.33,79.08,18.65,19.83,7.21,38.28,16.97,54.94,29.86,12.97,10.03,24.38,21.76,33.6,35.34,9.91,14.59,17.18,30.46,20.21,47.94,1.97,11.36,1.95,22.82,1.05,34.4-1.33,17.18-5.72,33.56-11.56,49.55-5.85,16.01-13.07,31.48-22.14,45.96-8.71,13.91-17.32,27.93-26.77,41.34-8.58,12.16-17.87,23.88-27.52,35.21-10.37,12.17-21.08,24.13-32.47,35.36-18.45,18.19-38.95,33.93-61.06,47.5-16.11,9.89-32.78,18.75-50.34,25.75-15.75,6.28-31.54,12.68-47.76,17.54-18.21,5.45-36.83,9.7-55.45,13.57-14.5,3.01-29.25,4.9-43.95,6.8-10.99,1.42-22.08,2.3-33.14,3.01-12.01,.77-24.05,1.08-36.08,1.55-7.7,.3-15.41,.83-23.1,.68-12.63-.23-25.29-.49-37.87-1.52-29.5-2.41-58.51-7.56-86.69-16.9-2.65-.88-5.34-1.65-8.01-2.48,0-2,0-4,0-6Z"/><path class="cls-1" d="M0,892.54c17.62,3.99,35.15,8.43,52.89,11.79,9.41,1.78,19.16,1.9,28.77,2.4,9.69,.51,19.4,.69,29.1,.78,13.03,.12,26.07,.41,39.09-.09,13.07-.51,26.16-1.48,39.16-2.99,21.65-2.52,43.13-6.04,64.42-10.96,26.51-6.12,52.23-14.35,77.19-25.14,26.37-11.39,50.94-25.76,73.48-43.53,7.46-5.88,14.66-12.13,21.6-18.62,7.62-7.11,15.25-14.3,22.08-22.15,10.59-12.18,21.03-24.57,30.58-37.58,10.59-14.43,20.71-29.28,29.92-44.62,13.74-22.89,25-47,29.44-73.64,1.53-9.2,2.96-18.59,2.86-27.87-.2-18.73-5.66-36.14-15.54-52.18-6.93-11.24-15.21-21.36-25.04-30.08-13.45-11.94-28.39-21.64-44.97-28.89-13.16-5.75-26.67-10.29-40.64-13.38-13.6-3.01-27.32-5.48-40.99-8.17-15.6-3.07-31.25-5.87-46.78-9.23-15.28-3.31-30.2-7.87-44.69-13.89-14.91-6.2-29.12-13.65-41.7-23.71-9.18-7.34-18.03-15.26-26.06-23.83-11.68-12.47-21.37-26.53-29.87-41.41-6.29-11.01-11.83-22.3-14.31-34.79-1.53-7.69-2.75-15.5-3.35-23.31-.72-9.29-.36-18.65-.94-27.96-.71-11.32-1.78-22.63-2.94-33.92-2.45-23.71-8.29-46.67-16.51-68.99-5.06-13.74-10.12-27.59-16.75-40.6-5.29-10.37-12.55-19.84-19.63-29.18-10.21-13.48-23.64-23.38-38.57-31.04-10.78-5.54-22.29-9.48-34.4-10.99-9.05-1.13-18.18-1.7-27.29-2.25-3.17-.19-6.39,.43-9.59,.68v-6.74c12.62-1.59,25.09-.53,37.63,1.35,12.62,1.9,24.5,5.91,35.81,11.47,14.72,7.24,27.78,16.98,38.69,29.25,13.12,14.76,23.09,31.48,30.71,49.78,8.95,21.48,16.6,43.31,21.55,66.03,2.11,9.67,3.93,19.46,4.99,29.29,1.48,13.75,2.18,27.58,3.1,41.38,.61,9.15,.78,18.33,1.58,27.46,1.65,18.84,7.4,36.38,17.86,52.23,6.2,9.4,12.17,19.01,19.13,27.83,8.81,11.16,18.78,21.27,30.19,30.01,11.16,8.55,22.82,16.17,35.55,22.07,16.89,7.84,34.53,13.53,52.78,17.28,13.41,2.76,26.81,5.52,40.24,8.17,13.07,2.58,26.18,4.99,39.26,7.55,15.38,3.01,30.33,7.52,44.78,13.55,14.64,6.11,28.55,13.65,40.99,23.53,22.54,17.9,40.23,39.47,48.29,67.67,1.9,6.66,2.98,13.66,3.49,20.58,.59,7.98,.89,16.13-.06,24.04-1.16,9.67-3.46,19.25-5.8,28.73-3.9,15.79-10.53,30.56-17.99,44.94-10.08,19.42-21.93,37.76-35.14,55.18-8.99,11.86-18.36,23.42-27.61,35.08-1.46,1.84-3.14,3.52-4.78,5.21-6.92,7.1-13.82,14.22-20.83,21.22-3.51,3.5-7.24,6.79-10.91,10.14-12.28,11.23-25.49,21.27-39.62,30.01-11.13,6.89-22.37,13.78-34.2,19.32-15.46,7.25-31.37,13.62-47.39,19.57-22.13,8.21-45.12,13.52-68.26,18-10.34,2-20.82,3.39-31.3,4.57-13.47,1.52-26.97,3.11-40.49,3.69-22.26,.95-44.55,1.43-66.82,1.48-10.97,.02-22-.97-32.92-2.21-19.35-2.19-38.44-5.88-57.13-11.45-1.74-.52-3.56-.8-5.34-1.19,0-2.25,0-4.5,0-6.74Z"/><path class="cls-9" d="M0,872.3c8.86,1.8,17.69,3.75,26.58,5.35,6.63,1.2,13.33,2.05,20.02,2.88,22.66,2.78,45.44,2.59,68.18,2.13,13.44-.27,26.88-1.62,40.28-2.92,12.35-1.19,24.76-2.32,36.94-4.61,16.67-3.13,33.26-6.86,49.67-11.17,25.52-6.7,49.83-16.66,73.11-29.1,15.05-8.04,29.51-17.03,42.66-27.92,10.28-8.51,20.77-16.92,30.02-26.48,11.14-11.52,21.43-23.91,31.42-36.47,9.08-11.42,17.66-23.28,25.72-35.44,13.94-21.01,25.7-43.22,32.52-67.64,2.42-8.67,3.75-17.69,5.03-26.63,.81-5.62,.98-11.39,.78-17.08-.54-15.1-5.16-29.09-12.59-42.17-5.69-10.02-12.76-19.08-21.09-26.98-18.36-17.4-39.69-30.09-64.02-37.07-15.58-4.47-31.45-8.05-47.35-11.3-26.2-5.36-52.76-9.04-78.14-17.98-20.51-7.22-39.46-17.11-56.37-30.95-12.83-10.5-24.01-22.43-33.12-36.19-6.69-10.1-13.11-20.41-18.89-31.05-4.98-9.17-7.78-19.29-8.8-29.7-1.04-10.57-1.48-21.19-2.33-31.78-1.43-17.65-2.35-35.32-5.81-52.8-4.27-21.54-10.75-42.32-18.88-62.66-5.42-13.55-11.56-26.65-20.09-38.61-9.94-13.93-22.04-25.41-36.81-34.06-13.49-7.91-28.05-12.61-43.59-14.27C10.03,99.13,5.02,98.67,0,98.17c0-2.25,0-4.5,0-6.74,21.22,.86,41.58,4.95,60.31,15.55,13.16,7.46,24.12,17.37,34.02,28.73,8.56,9.82,15.25,20.82,20.76,32.41,8.29,17.43,15.22,35.48,19.88,54.26,3.29,13.27,6.4,26.6,8.83,40.04,1.53,8.46,1.86,17.16,2.4,25.77,.69,11.02,.83,22.07,1.6,33.08,1,14.38,3.81,28.44,10.49,41.35,7.23,13.96,15.9,26.98,25.86,39.21,12.61,15.48,27.58,28.12,44.6,38.38,15.08,9.09,31.41,15.38,48.38,19.82,13.1,3.44,26.37,6.28,39.65,9.01,16.88,3.47,33.95,6.11,50.75,9.94,24.25,5.53,47.16,14.44,67.73,28.86,20.18,14.14,36.25,31.69,46.24,54.39,3.96,8.99,6.53,18.34,7.59,28.2,2.08,19.47-.38,38.37-6.81,56.7-4.04,11.52-8.32,23.06-13.7,33.99-10.04,20.4-22.86,39.15-36.46,57.37-14.55,19.49-30.13,38.09-48.08,54.51-10.89,9.96-22.37,19.38-34.28,28.1-15.23,11.15-31.75,20.34-48.92,28.24-19.1,8.79-38.72,16.24-59.13,21.48-10.64,2.73-21.25,5.62-31.99,7.9-9.46,2-19.05,3.39-28.62,4.79-9.72,1.42-19.49,2.56-29.25,3.73-3.43,.41-6.89,.61-10.35,.78-6.32,.31-12.65,.58-18.98,.76-10.82,.3-21.65,.69-32.48,.71-8.83,.02-17.68-.11-26.47-.77-19.59-1.47-39.13-3.49-58.15-8.82-1.75-.49-3.62-.57-5.43-.84,0-2.25,0-4.5,0-6.74Z"/><path class="cls-11" d="M0,851.32c5.33,.79,10.67,1.6,16.01,2.36,6.92,.98,13.83,2.57,20.78,2.76,20.81,.59,41.64,1,62.46,.72,11.31-.15,22.65-1.53,33.9-2.9,13.75-1.68,27.5-3.52,41.1-6.07,11.25-2.11,22.36-5.1,33.42-8.12,22.62-6.18,44.21-15.01,64.87-26.08,14.82-7.94,29.24-16.6,41.86-27.77,11.62-10.28,23.41-20.51,33.91-31.88,10.57-11.44,19.85-24.11,29.35-36.5,12.13-15.81,22.62-32.68,31.27-50.65,6.49-13.48,11.97-27.4,14.6-42.14,1.62-9.07,2.68-18.46,2.24-27.62-.78-16.56-6.46-31.74-16.11-45.37-14.75-20.82-34.2-35.59-57.53-45.7-18.89-8.19-38.83-12.32-58.85-16.29-23.24-4.6-46.66-8.49-69.11-16.43-18.38-6.5-35.36-15.41-50.63-27.71-17.16-13.82-30.29-30.83-41.58-49.51-6.77-11.19-12.4-22.78-14.47-35.81-.81-5.09-1.53-10.2-1.95-15.33-1.11-13.41-1.95-26.84-3.04-40.25-1.77-21.72-7.13-42.66-14.27-63.15-6.2-17.79-13.04-35.31-23.73-51.06-10.44-15.39-23.67-27.71-40.23-36.11-10.71-5.44-22.2-8.91-34.26-10.09,0-2.25,0-4.5,0-6.74,8.99,2.23,18.14,3.96,26.92,6.82,12.99,4.23,24.22,11.67,34.27,20.94,13.7,12.63,24.29,27.48,31.83,44.46,9.29,20.92,17.01,42.4,21.65,64.85,1.98,9.59,3.48,19.31,4.49,29.05,1.18,11.43,1.54,22.94,2.36,34.4,1.19,16.48,3.67,32.63,11.93,47.35,7.29,12.99,15.62,25.18,25.37,36.49,11.26,13.06,24.55,23.57,39.29,32.17,13.67,7.97,28.41,13.77,43.79,17.62,13.03,3.26,26.16,6.13,39.29,8.98,16.72,3.63,33.6,6.6,50.2,10.69,20.5,5.06,39.73,13.47,56.32,26.69,13.68,10.91,25.44,23.77,33.68,39.49,5.74,10.94,9.43,22.37,10.74,34.78,1.8,17.01-.95,33.37-5.78,49.47-8.77,29.3-24.71,54.8-42.47,79.37-14.91,20.64-31.47,39.79-49.96,57.26-13.62,12.87-28.65,23.94-44.7,33.61-23.81,14.33-49.09,25.42-75.83,32.9-15.85,4.44-31.99,7.93-48.14,11.18-10.69,2.15-21.58,3.35-32.44,4.53-9.94,1.08-19.94,1.9-29.93,2.24-16.19,.54-32.42,1.12-48.6,.65-12.65-.37-25.27-2.23-37.89-3.56-5.49-.58-10.94-1.5-16.41-2.26,0-2.25,0-4.5,0-6.74Z"/><path class="cls-6" d="M0,829.59c12.43,.99,24.85,2.03,37.28,2.95,2.86,.21,5.75,.12,8.62,.03,16.03-.47,32.1-.43,48.08-1.62,24.1-1.8,47.94-5.85,71.3-12.08,16.52-4.41,32.6-10.19,48.27-17.16,18.58-8.27,36.07-18.43,51.83-31.14,11.57-9.33,22.59-19.53,32.72-30.41,17.87-19.21,33.34-40.38,46.63-63.02,10.08-17.17,18.13-35.33,21.87-55,4.43-23.28,1.15-45.24-12.53-65.21-10.32-15.07-23.9-26.36-39.61-35.31-17.97-10.23-37.73-15.25-57.73-19.52-15.3-3.27-30.72-6.1-45.9-9.85-21.47-5.3-42.02-12.93-60.32-25.85-13.9-9.81-25.71-21.68-35.65-35.36-8.35-11.5-16.33-23.37-20.31-37.2-2.15-7.47-3.56-15.25-4.44-22.98-1.62-14.2-2.08-28.55-3.99-42.71-2.62-19.43-7.91-38.28-15.08-56.53-3.84-9.78-7.83-19.56-12.68-28.87-7.68-14.73-18.51-26.94-32.06-36.71-8.05-5.8-17.02-9.53-26.3-12.7v-6.74c15.17,3.74,28.27,11.25,39.96,21.52,13.87,12.18,23.35,27.29,30.72,44,8.05,18.28,14.64,37.02,18.8,56.55,1.86,8.73,3.21,17.61,4.18,26.49,1.13,10.3,1.58,20.68,2.34,31.02,1.36,18.33,7.2,34.98,17.33,50.44,8.33,12.71,17.57,24.58,28.99,34.48,7.28,6.31,15.27,12,23.59,16.85,20.42,11.89,43.04,17.56,66,22.25,20.81,4.25,41.83,7.75,61.97,14.85,17.51,6.17,33.61,14.65,47.45,27.35,10.01,9.18,18.49,19.41,24.64,31.45,5.5,10.79,8.65,22.22,9.11,34.51,.87,23.38-5.62,44.85-15.46,65.68-9.86,20.86-22.77,39.76-37.01,57.77-7.5,9.48-15.62,18.48-23.69,27.5-17.24,19.25-37.63,34.58-60.09,47.21-17.86,10.05-36.62,18.04-56.16,24.21-16.45,5.19-33.13,9.41-50.22,11.84-11.92,1.7-23.87,3.2-35.83,4.47-7.74,.82-15.54,1.14-23.33,1.52-7.57,.37-15.16,.93-22.72,.69-14.36-.45-28.71-1.37-43.06-2.22-2.53-.15-5.01-.94-7.52-1.44,0-2,0-4,0-6Z"/><path class="cls-2" d="M0,806.36c16.69,.25,33.4,.91,50.08,.6,10.69-.2,21.39-1.54,32.01-2.9,10.8-1.38,21.55-3.24,32.27-5.22,15.52-2.87,30.62-7.39,45.32-13.09,18.45-7.16,35.86-16.3,52.04-27.8,14.09-10.02,26.67-21.58,38.21-34.43,12.03-13.39,22.93-27.6,32.76-42.65,9.41-14.4,17.47-29.51,22.81-45.94,3.55-10.92,5.82-22.13,5.67-33.62-.2-15.13-5.34-28.7-14.05-41.03-8.3-11.76-19.01-20.8-31.18-28.28-16.84-10.36-35.56-15.24-54.61-19.5-18.34-4.1-36.68-8.34-54.73-13.54-16.46-4.74-31.49-12.86-44.9-23.6-13.52-10.83-24.06-24.29-33.17-38.94-5.32-8.56-10.15-17.41-12.1-27.35-1.63-8.29-2.37-16.76-3.43-25.16-1.26-9.99-1.79-20.12-3.81-29.95-2.62-12.76-5.76-25.5-9.84-37.86-5.1-15.43-11.17-30.55-20.78-43.96-7.72-10.79-17.06-19.71-28.58-26.33,0-2.5,0-5,0-7.49,5.77,3.64,12.08,6.65,17.2,11.04,14.17,12.17,23.91,27.5,31.08,44.75,5.97,14.36,11.39,28.86,15,43.95,2.22,9.26,3.68,18.74,4.89,28.2,1.37,10.75,1.66,21.64,3.21,32.36,1.58,10.94,5.38,21.22,11.05,30.87,6.95,11.86,14.94,22.89,24.81,32.41,11.67,11.25,25.1,19.89,40.13,26.22,16.9,7.12,34.62,10.99,52.42,14.79,17.68,3.77,35.42,7.47,52.26,14.26,18.26,7.37,33.73,18.56,46.38,33.81,9.71,11.7,16.22,24.81,18.68,39.71,2.24,13.58,.19,26.98-3.16,40.22-5.62,22.22-16.54,41.87-29.73,60.29-8.21,11.47-16.88,22.66-26.01,33.42-7.16,8.44-14.95,16.42-23.13,23.87-11.08,10.09-23.32,18.72-36.42,26.1-18.2,10.25-37.11,18.88-57.3,24.29-14.02,3.75-28.18,7.2-42.49,9.54-14.43,2.36-29.08,3.64-43.69,4.55-13.79,.86-27.64,.71-41.46,.83-4.57,.04-9.15-.45-13.73-.7,0-2.25,0-4.5,0-6.74Z"/><path class="cls-7" d="M0,781.63c12.03-.23,24.06-.34,36.08-.75,5.78-.2,11.6-.63,17.31-1.56,12.91-2.11,25.87-4.11,38.61-7.04,19.02-4.37,37.33-11.08,54.27-20.79,10.7-6.13,20.82-13.34,30.76-20.66,6.05-4.46,11.53-9.79,16.79-15.19,11.45-11.75,21.63-24.54,30.89-38.11,10.18-14.94,19.07-30.47,24.57-47.8,3.55-11.19,5.24-22.68,4.09-34.29-1.22-12.29-6.36-23.22-14.03-32.97-10.56-13.42-24.07-23.07-39.66-29.4-10.46-4.25-21.59-6.93-32.52-9.94-15.16-4.18-30.52-7.67-45.62-12.08-22.05-6.43-40.58-18.67-55.77-35.85-10.23-11.57-18.39-24.5-23.66-39.06-3.02-8.34-3.84-17.14-4.71-25.95-1.03-10.35-2.33-20.75-4.55-30.9-4.35-19.89-11.29-38.97-20.95-56.91C8.69,316.43,4,311.27,0,305.76c0-3.25,0-6.49,0-9.74,7.29,5.77,12.53,13.28,16.92,21.23,10.47,18.94,17.74,39.19,22.58,60.23,2,8.69,2.78,17.66,3.98,26.52,1.42,10.54,1.81,21.24,5.58,31.39,3.83,10.33,9.77,19.41,16.28,28.15,11.41,15.32,26.04,26.75,43.19,35.01,14.06,6.78,29.08,10.62,44.22,14.04,20.01,4.53,40.22,8.54,58.67,18.01,18.49,9.49,32.82,23.43,42.33,41.94,3.92,7.63,6.01,15.87,6.63,24.63,1.34,18.95-3.85,36.32-11.69,53.11-8.76,18.76-20.18,35.9-33.62,51.6-8.05,9.41-16.26,18.78-25.22,27.31-11.49,10.94-24.52,19.95-38.55,27.55-14.04,7.6-28.57,14.05-43.92,18.27-13.87,3.81-27.98,6.88-42.13,9.5-15.31,2.84-30.84,4.15-46.46,3.87-6.26-.11-12.53-.02-18.79-.02,0-2.25,0-4.5,0-6.74Z"/><path class="cls-12" d="M0,756.9c15.82-1.08,31.56-2.52,47.16-5.81,18.54-3.91,36.35-9.74,53.23-18.22,12.75-6.41,24.42-14.47,35.17-23.98,18.2-16.1,32.78-35.08,44.98-55.88,7.32-12.48,12.88-25.87,15.14-40.3,2.67-17.06-1.72-32.28-12.59-45.76-10.5-13.01-23.69-22.23-39.49-27.25-14.4-4.58-29.1-8.21-43.71-12.08-16.92-4.48-33.11-10.68-47.13-21.34-12.36-9.4-22.53-20.88-30.14-34.52-5.91-10.6-9.47-21.81-10.72-33.97-1.73-16.81-5.55-33.24-11.31-49.18-.07-.18-.37-.27-.57-.41,0-6,0-11.99,0-17.99,3.2,7.86,6.72,15.61,9.51,23.62,4.36,12.49,7.14,25.37,8.57,38.58,1.23,11.43,3.01,22.78,8.9,33.05,10.37,18.1,23.93,32.87,42.51,42.94,15.68,8.5,32.74,12.58,49.77,16.92,13.98,3.57,27.87,7.36,40.76,14.07,15.7,8.17,28.39,19.6,36.4,35.5,5.61,11.13,7.76,22.94,6.27,35.67-2.22,18.87-9.91,35.46-19.56,51.31-8.52,13.99-18.59,26.82-29.69,38.96-16.88,18.46-36.75,32.55-59.44,42.74-16.9,7.59-34.61,12.72-52.92,15.54-10.56,1.62-21.22,2.59-31.84,3.8-3.06,.35-6.15,.51-9.23,.76,0-2.25,0-4.5,0-6.74Z"/><path class="cls-8" d="M0,729.92c9.31-1.99,18.69-3.65,27.9-6.03,18.67-4.81,35.85-13,51.15-24.72,18.43-14.12,33.3-31.53,45.27-51.36,7.12-11.79,12.51-24.43,14.3-38.17,1.6-12.36-1.3-23.87-8.58-34.23-8.89-12.65-20.92-21.08-35.31-26.03-14.18-4.87-28.6-9.01-42.91-13.52-16.87-5.32-31.36-14.46-43.45-27.34C5.37,505.33,2.78,501.75,0,498.35c0-4.25,0-8.49,0-12.74,2.9,4.04,5.83,8.07,8.7,12.13,6.73,9.51,15.51,16.65,25.49,22.56,12.89,7.63,27.16,11.53,41.39,15.46,16.35,4.52,32.48,9.47,45.92,20.35,11.79,9.55,20.39,21.35,23.22,36.58,2.71,14.65-.54,28.49-6.24,42-6.39,15.16-15.58,28.62-25.8,41.27-18.75,23.21-42,40.4-70.45,50.3-13.22,4.6-26.65,8.03-40.54,9.7-.58,.07-1.12,.46-1.68,.71,0-2.25,0-4.5,0-6.74Z"/><path class="cls-4" d="M0,698.44c9.21-4.49,18.78-8.38,27.52-13.63,8.84-5.31,16.86-11.96,23.32-20.25,4.31-5.52,9.18-10.64,13.19-16.36,8.41-12,15.08-24.79,17.03-39.68,2.17-16.57-4.79-28.84-16.98-39.21-11.19-9.52-24.99-13.05-38.32-17.84C17.06,548.35,8.58,544.56,0,541.07c0-2.75,0-5.5,0-8.24,9.29,3.99,18.5,8.18,27.9,11.9,8.5,3.37,17.57,5.47,25.75,9.45,17.97,8.73,31.17,22.13,34.62,42.54,1.81,10.71-.81,21.34-5.08,31.34-6.57,15.38-16.1,28.8-27.28,41.21-15.06,16.73-33.47,28.18-54.43,35.85-.45,.16-.99,.05-1.49,.06,0-2.25,0-4.5,0-6.74Z"/><path class="cls-3" d="M0,650.48c4.78-6.15,10.05-12,14.22-18.54,5.55-8.7,9.46-18.21,9.77-28.8,.25-8.67-3.03-16.24-8.8-22.28C10.77,576.23,5.11,572.78,0,568.8c0-2.5,0-5,0-7.49,16.71,7.17,28.22,18.53,30.81,37.41,1.54,11.25-2.22,21.09-7.13,30.76-5.56,10.95-12.75,20.69-21.68,29.13-.62,.59-1.33,1.08-1.99,1.62,0-3.25,0-6.49,0-9.74Z"/></g><path class="cls-5" d="M0,261c217.32,0,394,150.43,394,336S217.32,933,0,933"/></svg>